# xmcd
#
# Track frame offsets: 
#        150
#        18355
#        30507
#        46905
#        64275
#        78060
#        91840
#        111322
#        126855
#        143137
#        160665
#        175972
#        190630
#        203900
#
# Disc length: 2950 seconds
#
# Revision: 0
# Processed by: cddbd v1.5.1PL0 Copyright (c) Steve Scherf et al.
# Submitted via: ExactAudioCopy v0.95a3
#
DISCID=af0b840e
DTITLE=Jad and Jefferson - Caminhos Da Vida
DYEAR=2004
DGENRE=Sertanejo
TTITLE0=Jad and Jefferson - Coisas Do Coração 
TTITLE1=Jad and Jefferson - Tô Pagando Pau
TTITLE2=Jad and Jefferson - Turma Do Zóio Roxo
TTITLE3=Jad and Jefferson - Pra Conquistar Um Amor
TTITLE4=Jad and Jefferson - Caminhos Da Vida
TTITLE5=Jad and Jefferson - O Filé
TTITLE6=Jad and Jefferson - Último Porre
TTITLE7=Jad and Jefferson - Eu Chorei De Novo
TTITLE8=Jad and Jefferson - Rainha Do Paraná
TTITLE9=Jad and Jefferson - Caí Na Cilada
TTITLE10=Jad and Jefferson - Swing Da Paixão
TTITLE11=Jad and Jefferson - Furar O Couro
TTITLE12=Jad and Jefferson - Odail
TTITLE13=Jad and Jefferson - Obras De Poeta
EXTD=
EXTT0=
EXTT1=
EXTT2=
EXTT3=
EXTT4=
EXTT5=
EXTT6=
EXTT7=
EXTT8=
EXTT9=
EXTT10=
EXTT11=
EXTT12=
EXTT13=
PLAYORDER=
